<svg width="30" height="30" viewBox="0 0 30 30" fill="none" xmlns="http://www.w3.org/2000/svg">
<circle cx="15" cy="15" r="15" transform="rotate(-180 15 15)" fill="#F6F6F6"/>
<path d="M17.785 20.2063L12.71 15.0001L17.785 9.79381C17.8758 9.70079 17.9267 9.57592 17.9267 9.44589C17.9267 9.31586 17.8758 9.19099 17.785 9.09798C17.7408 9.05294 17.6882 9.01716 17.63 8.99273C17.5719 8.9683 17.5095 8.95572 17.4464 8.95572C17.3834 8.95572 17.321 8.9683 17.2628 8.99273C17.2047 9.01716 17.152 9.05294 17.1079 9.09798L11.7079 14.6365C11.6131 14.7338 11.56 14.8642 11.56 15.0001C11.56 15.1359 11.6131 15.2663 11.7079 15.3636L17.1068 20.9021C17.151 20.9475 17.2038 20.9836 17.2621 21.0082C17.3205 21.0328 17.3831 21.0455 17.4464 21.0455C17.5097 21.0455 17.5724 21.0328 17.6307 21.0082C17.689 20.9836 17.7419 20.9475 17.786 20.9021C17.8769 20.8091 17.9277 20.6843 17.9277 20.5542C17.9277 20.4242 17.8769 20.2993 17.786 20.2063H17.785Z" fill="#323232"/>
</svg>
