<svg width="30" height="30" viewBox="0 0 30 30" fill="none" xmlns="http://www.w3.org/2000/svg">
<circle cx="15" cy="15" r="15" fill="#F6F6F6"/>
<path d="M12.215 9.79369L17.29 14.9999L12.215 20.2062C12.1242 20.2992 12.0733 20.4241 12.0733 20.5541C12.0733 20.6841 12.1242 20.809 12.215 20.902C12.2592 20.9471 12.3118 20.9828 12.37 21.0073C12.4281 21.0317 12.4905 21.0443 12.5536 21.0443C12.6166 21.0443 12.679 21.0317 12.7372 21.0073C12.7953 20.9828 12.848 20.9471 12.8921 20.902L18.2921 15.3635C18.3869 15.2662 18.44 15.1358 18.44 14.9999C18.44 14.8641 18.3869 14.7337 18.2921 14.6364L12.8932 9.09785C12.849 9.0525 12.7962 9.01645 12.7379 8.99183C12.6795 8.96721 12.6169 8.95453 12.5536 8.95453C12.4903 8.95453 12.4276 8.96721 12.3693 8.99183C12.311 9.01645 12.2581 9.0525 12.214 9.09785C12.1231 9.19087 12.0723 9.31574 12.0723 9.44577C12.0723 9.5758 12.1231 9.70067 12.214 9.79369H12.215Z" fill="#323232"/>
</svg>
